<mxfile host="app.diagrams.net" agent="Mozilla/5.0 (Windows NT 10.0; Win64; x64) AppleWebKit/537.36 (KHTML, like Gecko) Chrome/136.0.0.0 Safari/537.36" version="26.2.14">
  <diagram name="Page-1" id="pgiMqyUjf4aCU3Kz9-66">
    <mxGraphModel dx="2538" dy="1031" grid="1" gridSize="10" guides="1" tooltips="1" connect="1" arrows="1" fold="1" page="1" pageScale="1" pageWidth="850" pageHeight="1100" math="0" shadow="0">
      <root>
        <mxCell id="0" />
        <mxCell id="1" parent="0" />
        <mxCell id="iwBYStO_40tfpdYds1Tp-1" value="Department" style="swimlane;whiteSpace=wrap;html=1;fillColor=#1ba1e2;fontColor=#ffffff;strokeColor=#006EAF;fillStyle=auto;" parent="1" vertex="1">
          <mxGeometry x="190" y="690" width="200" height="160" as="geometry" />
        </mxCell>
        <mxCell id="iwBYStO_40tfpdYds1Tp-2" value="ID{PK}" style="text;html=1;align=center;verticalAlign=middle;resizable=0;points=[];autosize=1;strokeColor=none;fillColor=none;" parent="iwBYStO_40tfpdYds1Tp-1" vertex="1">
          <mxGeometry x="15" y="38" width="60" height="30" as="geometry" />
        </mxCell>
        <mxCell id="iwBYStO_40tfpdYds1Tp-4" value="location" style="text;html=1;align=center;verticalAlign=middle;resizable=0;points=[];autosize=1;strokeColor=none;fillColor=none;" parent="iwBYStO_40tfpdYds1Tp-1" vertex="1">
          <mxGeometry x="15" y="98" width="60" height="30" as="geometry" />
        </mxCell>
        <mxCell id="iwBYStO_40tfpdYds1Tp-3" value="name" style="text;html=1;align=center;verticalAlign=middle;resizable=0;points=[];autosize=1;strokeColor=none;fillColor=none;" parent="iwBYStO_40tfpdYds1Tp-1" vertex="1">
          <mxGeometry x="15" y="68" width="50" height="30" as="geometry" />
        </mxCell>
        <mxCell id="iwBYStO_40tfpdYds1Tp-5" value="Doctor" style="swimlane;whiteSpace=wrap;html=1;fillColor=#1ba1e2;fontColor=#ffffff;strokeColor=#006EAF;" parent="1" vertex="1">
          <mxGeometry x="670" y="690" width="200" height="200" as="geometry" />
        </mxCell>
        <mxCell id="iwBYStO_40tfpdYds1Tp-7" value="Name" style="text;html=1;align=center;verticalAlign=middle;resizable=0;points=[];autosize=1;strokeColor=none;fillColor=none;" parent="iwBYStO_40tfpdYds1Tp-5" vertex="1">
          <mxGeometry x="5" y="60" width="60" height="30" as="geometry" />
        </mxCell>
        <mxCell id="iwBYStO_40tfpdYds1Tp-8" value="Phone number" style="text;html=1;align=center;verticalAlign=middle;resizable=0;points=[];autosize=1;strokeColor=none;fillColor=none;" parent="iwBYStO_40tfpdYds1Tp-5" vertex="1">
          <mxGeometry x="10" y="140" width="100" height="30" as="geometry" />
        </mxCell>
        <mxCell id="iwBYStO_40tfpdYds1Tp-6" value="ID {PK}" style="text;html=1;align=center;verticalAlign=middle;resizable=0;points=[];autosize=1;strokeColor=none;fillColor=none;" parent="iwBYStO_40tfpdYds1Tp-5" vertex="1">
          <mxGeometry x="10" y="38" width="60" height="30" as="geometry" />
        </mxCell>
        <mxCell id="iwBYStO_40tfpdYds1Tp-9" value="Address" style="text;html=1;align=center;verticalAlign=middle;resizable=0;points=[];autosize=1;strokeColor=none;fillColor=none;" parent="iwBYStO_40tfpdYds1Tp-5" vertex="1">
          <mxGeometry x="5" y="100" width="70" height="30" as="geometry" />
        </mxCell>
        <mxCell id="iwBYStO_40tfpdYds1Tp-10" value="Salary" style="text;html=1;align=center;verticalAlign=middle;resizable=0;points=[];autosize=1;strokeColor=none;fillColor=none;" parent="iwBYStO_40tfpdYds1Tp-5" vertex="1">
          <mxGeometry x="5" y="80" width="60" height="30" as="geometry" />
        </mxCell>
        <mxCell id="iwBYStO_40tfpdYds1Tp-11" value="Date of joining" style="text;html=1;align=center;verticalAlign=middle;resizable=0;points=[];autosize=1;strokeColor=none;fillColor=none;" parent="iwBYStO_40tfpdYds1Tp-5" vertex="1">
          <mxGeometry x="5" y="120" width="100" height="30" as="geometry" />
        </mxCell>
        <mxCell id="iwBYStO_40tfpdYds1Tp-29" value="Registered patient" style="swimlane;whiteSpace=wrap;html=1;fillColor=#1ba1e2;fontColor=#ffffff;strokeColor=#006EAF;" parent="1" vertex="1">
          <mxGeometry x="670" y="1060" width="200" height="290" as="geometry" />
        </mxCell>
        <mxCell id="iwBYStO_40tfpdYds1Tp-30" value="ID {PK}" style="text;html=1;align=center;verticalAlign=middle;resizable=0;points=[];autosize=1;strokeColor=none;fillColor=none;" parent="iwBYStO_40tfpdYds1Tp-29" vertex="1">
          <mxGeometry x="10" y="40" width="60" height="30" as="geometry" />
        </mxCell>
        <mxCell id="iwBYStO_40tfpdYds1Tp-31" value="Registration date" style="text;html=1;align=center;verticalAlign=middle;resizable=0;points=[];autosize=1;strokeColor=none;fillColor=none;" parent="iwBYStO_40tfpdYds1Tp-29" vertex="1">
          <mxGeometry x="10" y="130" width="110" height="30" as="geometry" />
        </mxCell>
        <mxCell id="iwBYStO_40tfpdYds1Tp-21" value="PatientName" style="text;html=1;align=center;verticalAlign=middle;resizable=0;points=[];autosize=1;strokeColor=none;fillColor=none;" parent="iwBYStO_40tfpdYds1Tp-29" vertex="1">
          <mxGeometry x="10" y="160" width="90" height="30" as="geometry" />
        </mxCell>
        <mxCell id="iwBYStO_40tfpdYds1Tp-22" value="PatientCountry" style="text;html=1;align=center;verticalAlign=middle;resizable=0;points=[];autosize=1;strokeColor=none;fillColor=none;" parent="iwBYStO_40tfpdYds1Tp-29" vertex="1">
          <mxGeometry x="10" y="100" width="100" height="30" as="geometry" />
        </mxCell>
        <mxCell id="iwBYStO_40tfpdYds1Tp-23" value="IC number" style="text;html=1;align=center;verticalAlign=middle;resizable=0;points=[];autosize=1;strokeColor=none;fillColor=none;" parent="iwBYStO_40tfpdYds1Tp-29" vertex="1">
          <mxGeometry x="10" y="70" width="80" height="30" as="geometry" />
        </mxCell>
        <mxCell id="iwBYStO_40tfpdYds1Tp-25" value="Date of birth" style="text;html=1;align=center;verticalAlign=middle;resizable=0;points=[];autosize=1;strokeColor=none;fillColor=none;" parent="iwBYStO_40tfpdYds1Tp-29" vertex="1">
          <mxGeometry x="10" y="190" width="90" height="30" as="geometry" />
        </mxCell>
        <mxCell id="iwBYStO_40tfpdYds1Tp-26" value="Sex" style="text;html=1;align=center;verticalAlign=middle;resizable=0;points=[];autosize=1;strokeColor=none;fillColor=none;" parent="iwBYStO_40tfpdYds1Tp-29" vertex="1">
          <mxGeometry x="10" y="210" width="40" height="30" as="geometry" />
        </mxCell>
        <mxCell id="iwBYStO_40tfpdYds1Tp-27" value="Phone number" style="text;html=1;align=center;verticalAlign=middle;resizable=0;points=[];autosize=1;strokeColor=none;fillColor=none;" parent="iwBYStO_40tfpdYds1Tp-29" vertex="1">
          <mxGeometry x="10" y="230" width="100" height="30" as="geometry" />
        </mxCell>
        <mxCell id="iwBYStO_40tfpdYds1Tp-28" value="Address" style="text;html=1;align=center;verticalAlign=middle;resizable=0;points=[];autosize=1;strokeColor=none;fillColor=none;" parent="iwBYStO_40tfpdYds1Tp-29" vertex="1">
          <mxGeometry x="10" y="250" width="70" height="30" as="geometry" />
        </mxCell>
        <mxCell id="iwBYStO_40tfpdYds1Tp-32" value="" style="endArrow=none;html=1;rounded=0;" parent="1" edge="1">
          <mxGeometry width="50" height="50" relative="1" as="geometry">
            <mxPoint x="390" y="770" as="sourcePoint" />
            <mxPoint x="670" y="770" as="targetPoint" />
          </mxGeometry>
        </mxCell>
        <mxCell id="iwBYStO_40tfpdYds1Tp-33" value="" style="endArrow=none;html=1;rounded=0;" parent="1" edge="1">
          <mxGeometry width="50" height="50" relative="1" as="geometry">
            <mxPoint x="390" y="810" as="sourcePoint" />
            <mxPoint x="670" y="810" as="targetPoint" />
          </mxGeometry>
        </mxCell>
        <mxCell id="iwBYStO_40tfpdYds1Tp-34" value="" style="endArrow=none;html=1;rounded=0;entryX=0.5;entryY=1;entryDx=0;entryDy=0;exitX=0.5;exitY=0;exitDx=0;exitDy=0;" parent="1" edge="1" source="iwBYStO_40tfpdYds1Tp-29">
          <mxGeometry width="50" height="50" relative="1" as="geometry">
            <mxPoint x="769.47" y="1050" as="sourcePoint" />
            <mxPoint x="769.47" y="890" as="targetPoint" />
          </mxGeometry>
        </mxCell>
        <mxCell id="iwBYStO_40tfpdYds1Tp-35" value="Consultation record" style="swimlane;whiteSpace=wrap;html=1;fillColor=#1ba1e2;fontColor=#ffffff;strokeColor=#006EAF;" parent="1" vertex="1">
          <mxGeometry x="140" y="1050" width="200" height="280" as="geometry" />
        </mxCell>
        <mxCell id="iwBYStO_40tfpdYds1Tp-39" value="Checkup doctor" style="text;html=1;align=center;verticalAlign=middle;resizable=0;points=[];autosize=1;strokeColor=none;fillColor=none;" parent="iwBYStO_40tfpdYds1Tp-35" vertex="1">
          <mxGeometry y="40" width="110" height="30" as="geometry" />
        </mxCell>
        <mxCell id="iwBYStO_40tfpdYds1Tp-40" value="Desc of symptoms" style="text;html=1;align=center;verticalAlign=middle;resizable=0;points=[];autosize=1;strokeColor=none;fillColor=none;" parent="iwBYStO_40tfpdYds1Tp-35" vertex="1">
          <mxGeometry y="70" width="120" height="30" as="geometry" />
        </mxCell>
        <mxCell id="iwBYStO_40tfpdYds1Tp-41" value="Diagnosis" style="text;html=1;align=center;verticalAlign=middle;resizable=0;points=[];autosize=1;strokeColor=none;fillColor=none;" parent="iwBYStO_40tfpdYds1Tp-35" vertex="1">
          <mxGeometry y="100" width="80" height="30" as="geometry" />
        </mxCell>
        <mxCell id="iwBYStO_40tfpdYds1Tp-42" value="Consultation number" style="text;html=1;align=center;verticalAlign=middle;resizable=0;points=[];autosize=1;strokeColor=none;fillColor=none;" parent="iwBYStO_40tfpdYds1Tp-35" vertex="1">
          <mxGeometry x="5" y="130" width="130" height="30" as="geometry" />
        </mxCell>
        <mxCell id="iwBYStO_40tfpdYds1Tp-45" value="Consultation charge" style="text;html=1;align=center;verticalAlign=middle;resizable=0;points=[];autosize=1;strokeColor=none;fillColor=none;" parent="iwBYStO_40tfpdYds1Tp-35" vertex="1">
          <mxGeometry x="5" y="160" width="130" height="30" as="geometry" />
        </mxCell>
        <mxCell id="iwBYStO_40tfpdYds1Tp-46" value="Checkup date" style="text;html=1;align=center;verticalAlign=middle;resizable=0;points=[];autosize=1;strokeColor=none;fillColor=none;" parent="iwBYStO_40tfpdYds1Tp-35" vertex="1">
          <mxGeometry x="5" y="190" width="100" height="30" as="geometry" />
        </mxCell>
        <mxCell id="iwBYStO_40tfpdYds1Tp-48" value="Checkup time" style="text;html=1;align=center;verticalAlign=middle;resizable=0;points=[];autosize=1;strokeColor=none;fillColor=none;" parent="iwBYStO_40tfpdYds1Tp-35" vertex="1">
          <mxGeometry x="5" y="220" width="100" height="30" as="geometry" />
        </mxCell>
        <mxCell id="iwBYStO_40tfpdYds1Tp-36" value="" style="endArrow=none;html=1;rounded=0;entryX=1;entryY=0.5;entryDx=0;entryDy=0;" parent="1" target="iwBYStO_40tfpdYds1Tp-35" edge="1">
          <mxGeometry width="50" height="50" relative="1" as="geometry">
            <mxPoint x="670" y="1190" as="sourcePoint" />
            <mxPoint x="445" y="1180" as="targetPoint" />
          </mxGeometry>
        </mxCell>
        <mxCell id="SlIInPcPAZ8TnYqFgtZE-3" value="manages" style="text;html=1;align=center;verticalAlign=middle;resizable=0;points=[];autosize=1;strokeColor=none;fillColor=none;" parent="1" vertex="1">
          <mxGeometry x="505" y="730" width="70" height="30" as="geometry" />
        </mxCell>
        <mxCell id="SlIInPcPAZ8TnYqFgtZE-5" value="0.. 1" style="text;html=1;align=center;verticalAlign=middle;whiteSpace=wrap;rounded=0;" parent="1" vertex="1">
          <mxGeometry x="390" y="740" width="60" height="30" as="geometry" />
        </mxCell>
        <mxCell id="SlIInPcPAZ8TnYqFgtZE-6" value="" style="shape=flexArrow;endArrow=block;html=1;rounded=0;fillColor=#1ba1e2;strokeColor=#006EAF;" parent="1" edge="1">
          <mxGeometry width="50" height="50" relative="1" as="geometry">
            <mxPoint x="550" y="830" as="sourcePoint" />
            <mxPoint x="590" y="830" as="targetPoint" />
          </mxGeometry>
        </mxCell>
        <mxCell id="SlIInPcPAZ8TnYqFgtZE-7" value="" style="shape=flexArrow;endArrow=block;html=1;rounded=0;fillColor=#1ba1e2;strokeColor=#006EAF;" parent="1" edge="1">
          <mxGeometry width="50" height="50" relative="1" as="geometry">
            <mxPoint x="510" y="750" as="sourcePoint" />
            <mxPoint x="470" y="750" as="targetPoint" />
          </mxGeometry>
        </mxCell>
        <mxCell id="SlIInPcPAZ8TnYqFgtZE-9" value="Has" style="text;html=1;align=center;verticalAlign=middle;whiteSpace=wrap;rounded=0;" parent="1" vertex="1">
          <mxGeometry x="500" y="820" width="60" height="30" as="geometry" />
        </mxCell>
        <mxCell id="SlIInPcPAZ8TnYqFgtZE-10" value="1..1" style="text;html=1;align=center;verticalAlign=middle;whiteSpace=wrap;rounded=0;" parent="1" vertex="1">
          <mxGeometry x="610" y="740" width="60" height="30" as="geometry" />
        </mxCell>
        <mxCell id="SlIInPcPAZ8TnYqFgtZE-11" value="1..1" style="text;html=1;align=center;verticalAlign=middle;whiteSpace=wrap;rounded=0;" parent="1" vertex="1">
          <mxGeometry x="390" y="810" width="60" height="30" as="geometry" />
        </mxCell>
        <mxCell id="SlIInPcPAZ8TnYqFgtZE-12" value="1..*" style="text;html=1;align=center;verticalAlign=middle;whiteSpace=wrap;rounded=0;" parent="1" vertex="1">
          <mxGeometry x="610" y="810" width="60" height="30" as="geometry" />
        </mxCell>
        <mxCell id="SlIInPcPAZ8TnYqFgtZE-20" value="" style="shape=flexArrow;endArrow=block;html=1;rounded=0;fillColor=#1ba1e2;strokeColor=#006EAF;" parent="1" edge="1">
          <mxGeometry width="50" height="50" relative="1" as="geometry">
            <mxPoint x="819.6600000000001" y="970" as="sourcePoint" />
            <mxPoint x="819.6600000000001" y="930" as="targetPoint" />
          </mxGeometry>
        </mxCell>
        <mxCell id="SlIInPcPAZ8TnYqFgtZE-21" value="Consults" style="text;html=1;align=center;verticalAlign=middle;whiteSpace=wrap;rounded=0;direction=west;flipV=1;flipH=1;" parent="1" vertex="1">
          <mxGeometry x="790" y="970" width="60" height="30" as="geometry" />
        </mxCell>
        <mxCell id="SlIInPcPAZ8TnYqFgtZE-22" value="1..1" style="text;html=1;align=center;verticalAlign=middle;whiteSpace=wrap;rounded=0;" parent="1" vertex="1">
          <mxGeometry x="760" y="890" width="60" height="30" as="geometry" />
        </mxCell>
        <mxCell id="SlIInPcPAZ8TnYqFgtZE-23" value="1..1" style="text;html=1;align=center;verticalAlign=middle;whiteSpace=wrap;rounded=0;" parent="1" vertex="1">
          <mxGeometry x="760" y="1030" width="60" height="30" as="geometry" />
        </mxCell>
        <mxCell id="SlIInPcPAZ8TnYqFgtZE-24" value="" style="shape=flexArrow;endArrow=block;html=1;rounded=0;fillColor=#1ba1e2;strokeColor=#006EAF;" parent="1" edge="1">
          <mxGeometry width="50" height="50" relative="1" as="geometry">
            <mxPoint x="470" y="1154.4699999999998" as="sourcePoint" />
            <mxPoint x="430" y="1154.4699999999998" as="targetPoint" />
          </mxGeometry>
        </mxCell>
        <mxCell id="SlIInPcPAZ8TnYqFgtZE-25" value="Has" style="text;html=1;align=center;verticalAlign=middle;whiteSpace=wrap;rounded=0;" parent="1" vertex="1">
          <mxGeometry x="470" y="1140" width="60" height="30" as="geometry" />
        </mxCell>
        <mxCell id="SlIInPcPAZ8TnYqFgtZE-26" value="1..1" style="text;html=1;align=center;verticalAlign=middle;whiteSpace=wrap;rounded=0;" parent="1" vertex="1">
          <mxGeometry x="330" y="1200" width="60" height="30" as="geometry" />
        </mxCell>
        <mxCell id="SlIInPcPAZ8TnYqFgtZE-27" value="0..*" style="text;html=1;align=center;verticalAlign=middle;whiteSpace=wrap;rounded=0;" parent="1" vertex="1">
          <mxGeometry x="610" y="1200" width="60" height="30" as="geometry" />
        </mxCell>
        <mxCell id="SlIInPcPAZ8TnYqFgtZE-28" value="&lt;font style=&quot;color: light-dark(rgb(0, 0, 0), rgb(255, 0, 0));&quot;&gt;(a)&lt;/font&gt;" style="text;html=1;align=center;verticalAlign=middle;whiteSpace=wrap;rounded=0;" parent="1" vertex="1">
          <mxGeometry x="500" y="840" width="60" height="30" as="geometry" />
        </mxCell>
        <mxCell id="SlIInPcPAZ8TnYqFgtZE-29" value="&lt;font style=&quot;color: light-dark(rgb(0, 0, 0), rgb(255, 0, 0));&quot;&gt;(b)&lt;/font&gt;" style="text;html=1;align=center;verticalAlign=middle;whiteSpace=wrap;rounded=0;" parent="1" vertex="1">
          <mxGeometry x="470" y="1100" width="60" height="30" as="geometry" />
        </mxCell>
        <mxCell id="bxgaPumq-DvUv6yfpQPG-3" value="1..1" style="text;html=1;align=center;verticalAlign=middle;whiteSpace=wrap;rounded=0;" parent="1" vertex="1">
          <mxGeometry x="170" y="720" width="35" height="20" as="geometry" />
        </mxCell>
        <mxCell id="CYYpIv-HnM-2PHfvu33v-6" value="Admission" style="swimlane;childLayout=stackLayout;horizontal=1;startSize=50;horizontalStack=0;rounded=1;fontSize=14;fontStyle=0;strokeWidth=2;resizeParent=0;resizeLast=1;shadow=0;dashed=0;align=center;arcSize=4;whiteSpace=wrap;html=1;fillColor=#60a917;fontColor=#ffffff;strokeColor=#2D7600;" parent="1" vertex="1">
          <mxGeometry x="690" y="280" width="160" height="210" as="geometry" />
        </mxCell>
        <mxCell id="CYYpIv-HnM-2PHfvu33v-7" value="&lt;div&gt;Admission No.&lt;/div&gt;Date of Admission&lt;br&gt;Department&lt;div&gt;ward&lt;/div&gt;&lt;div&gt;bed No.&lt;br&gt;Initial condition&lt;br&gt;diagnosis&lt;br&gt;Treatment&lt;br&gt;Attending doctor&lt;/div&gt;&lt;div&gt;Date of discharge&lt;/div&gt;&lt;div&gt;&lt;br&gt;&lt;/div&gt;" style="align=left;strokeColor=none;fillColor=none;spacingLeft=4;spacingRight=4;fontSize=12;verticalAlign=top;resizable=0;rotatable=0;part=1;html=1;whiteSpace=wrap;" parent="CYYpIv-HnM-2PHfvu33v-6" vertex="1">
          <mxGeometry y="50" width="160" height="160" as="geometry" />
        </mxCell>
        <mxCell id="CYYpIv-HnM-2PHfvu33v-8" value="" style="endArrow=none;html=1;rounded=0;entryX=0.5;entryY=0;entryDx=0;entryDy=0;exitX=0.5;exitY=1;exitDx=0;exitDy=0;" parent="1" source="CYYpIv-HnM-2PHfvu33v-7" target="iwBYStO_40tfpdYds1Tp-5" edge="1">
          <mxGeometry relative="1" as="geometry">
            <mxPoint x="770" y="510" as="sourcePoint" />
            <mxPoint x="769" y="660" as="targetPoint" />
          </mxGeometry>
        </mxCell>
        <mxCell id="CYYpIv-HnM-2PHfvu33v-10" value="Prescription" style="swimlane;childLayout=stackLayout;horizontal=1;startSize=50;horizontalStack=0;rounded=1;fontSize=14;fontStyle=0;strokeWidth=2;resizeParent=0;resizeLast=1;shadow=0;dashed=0;align=center;arcSize=4;whiteSpace=wrap;html=1;fillColor=#60a917;fontColor=#ffffff;strokeColor=#2D7600;" parent="1" vertex="1">
          <mxGeometry x="1105" y="680" width="160" height="180" as="geometry" />
        </mxCell>
        <mxCell id="CYYpIv-HnM-2PHfvu33v-11" value="&lt;div&gt;Prescription No. {PK}&lt;/div&gt;&lt;div&gt;Date&lt;br&gt;&lt;/div&gt;Medication&lt;div&gt;Dosage&lt;/div&gt;&lt;div&gt;Frequency&lt;/div&gt;&lt;div&gt;Duration of use&lt;br&gt;Special instructions&lt;/div&gt;&lt;div&gt;Medication Charge&lt;/div&gt;" style="align=left;strokeColor=none;fillColor=none;spacingLeft=4;spacingRight=4;fontSize=12;verticalAlign=top;resizable=0;rotatable=0;part=1;html=1;whiteSpace=wrap;" parent="CYYpIv-HnM-2PHfvu33v-10" vertex="1">
          <mxGeometry y="50" width="160" height="130" as="geometry" />
        </mxCell>
        <mxCell id="CYYpIv-HnM-2PHfvu33v-12" value="Medication" style="swimlane;childLayout=stackLayout;horizontal=1;startSize=50;horizontalStack=0;rounded=1;fontSize=14;fontStyle=0;strokeWidth=2;resizeParent=0;resizeLast=1;shadow=0;dashed=0;align=center;arcSize=4;whiteSpace=wrap;html=1;fillColor=#60a917;fontColor=#ffffff;strokeColor=#2D7600;" parent="1" vertex="1">
          <mxGeometry x="1500" y="680" width="160" height="150" as="geometry" />
        </mxCell>
        <mxCell id="CYYpIv-HnM-2PHfvu33v-13" value="Medication ID {PK}&lt;div&gt;name&lt;/div&gt;&lt;div&gt;Usage&lt;/div&gt;" style="align=left;strokeColor=none;fillColor=none;spacingLeft=4;spacingRight=4;fontSize=12;verticalAlign=top;resizable=0;rotatable=0;part=1;html=1;whiteSpace=wrap;" parent="CYYpIv-HnM-2PHfvu33v-12" vertex="1">
          <mxGeometry y="50" width="160" height="100" as="geometry" />
        </mxCell>
        <mxCell id="CYYpIv-HnM-2PHfvu33v-14" value="" style="endArrow=none;html=1;rounded=0;entryX=0.003;entryY=0.455;entryDx=0;entryDy=0;entryPerimeter=0;exitX=1;exitY=0.5;exitDx=0;exitDy=0;" parent="1" target="CYYpIv-HnM-2PHfvu33v-11" edge="1" source="iwBYStO_40tfpdYds1Tp-5">
          <mxGeometry width="50" height="50" relative="1" as="geometry">
            <mxPoint x="890" y="830" as="sourcePoint" />
            <mxPoint x="1000" y="1144" as="targetPoint" />
          </mxGeometry>
        </mxCell>
        <mxCell id="CYYpIv-HnM-2PHfvu33v-15" value="" style="endArrow=none;html=1;rounded=0;entryX=-0.001;entryY=0.574;entryDx=0;entryDy=0;entryPerimeter=0;exitX=1.003;exitY=0.459;exitDx=0;exitDy=0;exitPerimeter=0;" parent="1" source="CYYpIv-HnM-2PHfvu33v-11" target="CYYpIv-HnM-2PHfvu33v-13" edge="1">
          <mxGeometry width="50" height="50" relative="1" as="geometry">
            <mxPoint x="1215" y="810" as="sourcePoint" />
            <mxPoint x="1394" y="764.29" as="targetPoint" />
          </mxGeometry>
        </mxCell>
        <mxCell id="CYYpIv-HnM-2PHfvu33v-16" value="Check_up" style="swimlane;childLayout=stackLayout;horizontal=1;startSize=50;horizontalStack=0;rounded=1;fontSize=14;fontStyle=0;strokeWidth=2;resizeParent=0;resizeLast=1;shadow=0;dashed=0;align=center;arcSize=4;whiteSpace=wrap;html=1;fillColor=#60a917;fontColor=#ffffff;strokeColor=#2D7600;" parent="1" vertex="1">
          <mxGeometry x="1105" y="260" width="160" height="150" as="geometry" />
        </mxCell>
        <mxCell id="CYYpIv-HnM-2PHfvu33v-17" value="&lt;div&gt;Check_up NO. {PK}&lt;br&gt;&lt;/div&gt;Attending doctor&amp;nbsp;&lt;div&gt;Diagnosis&lt;br&gt;Treatment&lt;br&gt;Condition&lt;br&gt;&lt;br&gt;&lt;/div&gt;" style="align=left;strokeColor=none;fillColor=none;spacingLeft=4;spacingRight=4;fontSize=12;verticalAlign=top;resizable=0;rotatable=0;part=1;html=1;whiteSpace=wrap;" parent="CYYpIv-HnM-2PHfvu33v-16" vertex="1">
          <mxGeometry y="50" width="160" height="100" as="geometry" />
        </mxCell>
        <mxCell id="CYYpIv-HnM-2PHfvu33v-20" value="" style="endArrow=none;html=1;rounded=0;exitX=0.5;exitY=1;exitDx=0;exitDy=0;entryX=0.5;entryY=0;entryDx=0;entryDy=0;" parent="1" source="CYYpIv-HnM-2PHfvu33v-17" target="CYYpIv-HnM-2PHfvu33v-10" edge="1">
          <mxGeometry relative="1" as="geometry">
            <mxPoint x="1103.57" y="440" as="sourcePoint" />
            <mxPoint x="1103.57" y="680" as="targetPoint" />
            <Array as="points" />
          </mxGeometry>
        </mxCell>
        <mxCell id="CYYpIv-HnM-2PHfvu33v-21" value="1..1" style="text;html=1;align=center;verticalAlign=middle;whiteSpace=wrap;rounded=0;" parent="1" vertex="1">
          <mxGeometry x="1190" y="650" width="35" height="20" as="geometry" />
        </mxCell>
        <mxCell id="CYYpIv-HnM-2PHfvu33v-22" value="1..1" style="text;html=1;align=center;verticalAlign=middle;whiteSpace=wrap;rounded=0;" parent="1" vertex="1">
          <mxGeometry x="1190" y="420" width="35" height="20" as="geometry" />
        </mxCell>
        <mxCell id="CYYpIv-HnM-2PHfvu33v-25" value="" style="shape=flexArrow;endArrow=block;html=1;rounded=0;fillColor=#008a00;strokeColor=#005700;" parent="1" edge="1">
          <mxGeometry width="50" height="50" relative="1" as="geometry">
            <mxPoint x="1221.97" y="550" as="sourcePoint" />
            <mxPoint x="1222.59" y="590" as="targetPoint" />
          </mxGeometry>
        </mxCell>
        <mxCell id="CYYpIv-HnM-2PHfvu33v-26" value="Get&amp;nbsp;" style="text;html=1;align=center;verticalAlign=middle;whiteSpace=wrap;rounded=0;" parent="1" vertex="1">
          <mxGeometry x="1197.5" y="515" width="50" height="30" as="geometry" />
        </mxCell>
        <mxCell id="CYYpIv-HnM-2PHfvu33v-27" value="1..1" style="text;html=1;align=center;verticalAlign=middle;whiteSpace=wrap;rounded=0;" parent="1" vertex="1">
          <mxGeometry x="870" y="790" width="35" height="20" as="geometry" />
        </mxCell>
        <mxCell id="CYYpIv-HnM-2PHfvu33v-28" value="1..*" style="text;html=1;align=center;verticalAlign=middle;whiteSpace=wrap;rounded=0;" parent="1" vertex="1">
          <mxGeometry x="1070" y="790" width="35" height="20" as="geometry" />
        </mxCell>
        <mxCell id="CYYpIv-HnM-2PHfvu33v-29" value="receive" style="text;html=1;align=center;verticalAlign=middle;whiteSpace=wrap;rounded=0;" parent="1" vertex="1">
          <mxGeometry x="970" y="760" width="50" height="30" as="geometry" />
        </mxCell>
        <mxCell id="CYYpIv-HnM-2PHfvu33v-31" value="" style="shape=flexArrow;endArrow=block;html=1;rounded=0;fillColor=#008a00;strokeColor=#005700;" parent="1" edge="1">
          <mxGeometry width="50" height="50" relative="1" as="geometry">
            <mxPoint x="965" y="775" as="sourcePoint" />
            <mxPoint x="925" y="775" as="targetPoint" />
          </mxGeometry>
        </mxCell>
        <mxCell id="CYYpIv-HnM-2PHfvu33v-32" value="Prescribed" style="text;html=1;align=center;verticalAlign=middle;whiteSpace=wrap;rounded=0;" parent="1" vertex="1">
          <mxGeometry x="1365" y="745" width="50" height="30" as="geometry" />
        </mxCell>
        <mxCell id="CYYpIv-HnM-2PHfvu33v-33" value="" style="shape=flexArrow;endArrow=block;html=1;rounded=0;fillColor=#008a00;strokeColor=#005700;" parent="1" edge="1">
          <mxGeometry width="50" height="50" relative="1" as="geometry">
            <mxPoint x="1340" y="759.3799999999999" as="sourcePoint" />
            <mxPoint x="1300" y="759.3799999999999" as="targetPoint" />
          </mxGeometry>
        </mxCell>
        <mxCell id="CYYpIv-HnM-2PHfvu33v-34" value="1..1" style="text;html=1;align=center;verticalAlign=middle;whiteSpace=wrap;rounded=0;" parent="1" vertex="1">
          <mxGeometry x="1265" y="790" width="35" height="20" as="geometry" />
        </mxCell>
        <mxCell id="CYYpIv-HnM-2PHfvu33v-35" value="1..*" style="text;html=1;align=center;verticalAlign=middle;whiteSpace=wrap;rounded=0;" parent="1" vertex="1">
          <mxGeometry x="1465" y="790" width="35" height="20" as="geometry" />
        </mxCell>
        <mxCell id="HaMvnOQRpAeRhv2OksEQ-1" value="Creates" style="text;html=1;align=center;verticalAlign=middle;whiteSpace=wrap;rounded=0;direction=west;flipV=1;flipH=1;" parent="1" vertex="1">
          <mxGeometry x="780" y="590" width="60" height="30" as="geometry" />
        </mxCell>
        <mxCell id="HaMvnOQRpAeRhv2OksEQ-2" value="0..*" style="text;html=1;align=center;verticalAlign=middle;whiteSpace=wrap;rounded=0;" parent="1" vertex="1">
          <mxGeometry x="792.5" y="500" width="35" height="20" as="geometry" />
        </mxCell>
        <mxCell id="HaMvnOQRpAeRhv2OksEQ-4" value="1..1" style="text;html=1;align=center;verticalAlign=middle;whiteSpace=wrap;rounded=0;" parent="1" vertex="1">
          <mxGeometry x="792.5" y="650" width="35" height="20" as="geometry" />
        </mxCell>
        <mxCell id="HaMvnOQRpAeRhv2OksEQ-5" value="" style="shape=flexArrow;endArrow=block;html=1;rounded=0;fillColor=#008a00;strokeColor=#005700;entryX=0.75;entryY=1;entryDx=0;entryDy=0;" parent="1" edge="1">
          <mxGeometry width="50" height="50" relative="1" as="geometry">
            <mxPoint x="810.25" y="590" as="sourcePoint" />
            <mxPoint x="810" y="549.9999999999999" as="targetPoint" />
          </mxGeometry>
        </mxCell>
        <mxCell id="g-n3ValnLm8aZ3QtFes6-1" value="&lt;font style=&quot;color: light-dark(rgb(0, 0, 0), rgb(255, 0, 0));&quot;&gt;(c)&lt;/font&gt;" style="text;html=1;align=center;verticalAlign=middle;whiteSpace=wrap;rounded=0;" vertex="1" parent="1">
          <mxGeometry x="1360" y="720" width="60" height="30" as="geometry" />
        </mxCell>
        <mxCell id="g-n3ValnLm8aZ3QtFes6-2" value="&lt;font style=&quot;color: light-dark(rgb(0, 0, 0), rgb(255, 0, 0));&quot;&gt;(d)&lt;/font&gt;" style="text;html=1;align=center;verticalAlign=middle;whiteSpace=wrap;rounded=0;" vertex="1" parent="1">
          <mxGeometry x="830" y="560" width="60" height="30" as="geometry" />
        </mxCell>
        <mxCell id="g-n3ValnLm8aZ3QtFes6-3" value="&lt;font style=&quot;color: light-dark(rgb(0, 0, 0), rgb(255, 0, 0));&quot;&gt;(e)&lt;/font&gt;" style="text;html=1;align=center;verticalAlign=middle;whiteSpace=wrap;rounded=0;" vertex="1" parent="1">
          <mxGeometry x="965" y="730" width="60" height="30" as="geometry" />
        </mxCell>
        <mxCell id="g-n3ValnLm8aZ3QtFes6-4" value="&lt;font style=&quot;color: light-dark(rgb(0, 0, 0), rgb(255, 0, 0));&quot;&gt;(e)&lt;/font&gt;" style="text;html=1;align=center;verticalAlign=middle;whiteSpace=wrap;rounded=0;" vertex="1" parent="1">
          <mxGeometry x="710" y="950" width="60" height="30" as="geometry" />
        </mxCell>
        <mxCell id="g-n3ValnLm8aZ3QtFes6-5" value="" style="endArrow=none;html=1;rounded=0;entryX=0.5;entryY=0;entryDx=0;entryDy=0;exitX=0;exitY=1;exitDx=0;exitDy=0;" edge="1" parent="1" source="iwBYStO_40tfpdYds1Tp-5" target="iwBYStO_40tfpdYds1Tp-35">
          <mxGeometry width="50" height="50" relative="1" as="geometry">
            <mxPoint x="575" y="968.75" as="sourcePoint" />
            <mxPoint x="245" y="968.75" as="targetPoint" />
          </mxGeometry>
        </mxCell>
        <mxCell id="g-n3ValnLm8aZ3QtFes6-7" value="Creates" style="text;html=1;align=center;verticalAlign=middle;whiteSpace=wrap;rounded=0;direction=west;flipV=1;flipH=1;rotation=-15;" vertex="1" parent="1">
          <mxGeometry x="480" y="900" width="60" height="30" as="geometry" />
        </mxCell>
        <mxCell id="g-n3ValnLm8aZ3QtFes6-8" value="" style="shape=flexArrow;endArrow=block;html=1;rounded=0;fillColor=#1ba1e2;strokeColor=#006EAF;width=15.294117647058824;endSize=5.870588235294118;" edge="1" parent="1">
          <mxGeometry width="50" height="50" relative="1" as="geometry">
            <mxPoint x="470" y="929.9999999999998" as="sourcePoint" />
            <mxPoint x="430" y="950" as="targetPoint" />
          </mxGeometry>
        </mxCell>
      </root>
    </mxGraphModel>
  </diagram>
</mxfile>
